<?xml version="1.0" standalone="no"?><!DOCTYPE svg PUBLIC "-//W3C//DTD SVG 1.1//EN" "http://www.w3.org/Graphics/SVG/1.1/DTD/svg11.dtd"><svg class="icon" height="512" viewBox="0 0 1024 1024" version="1.1" xmlns="http://www.w3.org/2000/svg"><path d="M31.875984 213.658707a397.233654 157.971746 0 1 0 794.467309 0 397.233654 157.971746 0 1 0-794.467309 0Z" fill="#6EB2F6" /><path d="M35.972497 557.509689c0.64008 0.768096 1.408176 1.536192 2.048256 2.304288 0.384048 0.512064 0.896112 0.896112 1.28016 1.408176 0.64008 0.64008 1.28016 1.408176 1.92024 2.048256l1.408176 1.408176c0.64008 0.64008 1.28016 1.28016 1.792224 1.92024 0.512064 0.512064 0.896112 1.024128 1.408176 1.408176l1.792224 1.792224c0.512064 0.512064 1.024128 1.024128 1.536192 1.408176 0.64008 0.64008 1.28016 1.152144 1.792224 1.792224 0.512064 0.512064 1.024128 0.896112 1.536192 1.408176 0.64008 0.64008 1.28016 1.152144 1.92024 1.792224 0.512064 0.512064 1.024128 0.896112 1.536192 1.408176 0.64008 0.512064 1.28016 1.152144 1.92024 1.664208 0.512064 0.512064 1.024128 0.896112 1.536192 1.408176 0.64008 0.512064 1.28016 1.152144 1.92024 1.664208 0.512064 0.384048 1.024128 0.896112 1.536192 1.28016 0.64008 0.512064 1.408176 1.152144 2.048256 1.664208 0.512064 0.384048 1.024128 0.896112 1.536192 1.28016 0.768096 0.512064 1.408176 1.152144 2.176272 1.664208l1.536192 1.152144c0.768096 0.64008 1.536192 1.152144 2.304288 1.792224 0.512064 0.384048 0.896112 0.64008 1.408176 1.024128 1.024128 0.768096 2.048256 1.536192 2.944368 2.176272 0.256032 0.128016 0.512064 0.384048 0.768096 0.512064l3.84048 2.688336c0.384048 0.256032 0.768096 0.512064 1.152144 0.896112 0.896112 0.64008 1.792224 1.28016 2.688336 1.792224 0.512064 0.384048 1.024128 0.64008 1.536192 1.024128l2.304288 1.536192c0.512064 0.384048 1.152144 0.768096 1.664208 1.152144 0.768096 0.512064 1.536192 1.024128 2.304288 1.408176 0.64008 0.384048 1.152144 0.768096 1.792224 1.152144 0.768096 0.512064 1.536192 0.896112 2.176273 1.408176 0.64008 0.384048 1.152144 0.768096 1.792224 1.152145 0.768096 0.512064 1.536192 0.896112 2.176272 1.408176 0.64008 0.384048 1.28016 0.768096 1.792224 1.152144 0.768096 0.384048 1.536192 0.896112 2.176272 1.28016 0.64008 0.384048 1.28016 0.768096 1.792224 1.024128 0.768096 0.384048 1.536192 0.896112 2.304288 1.28016 0.64008 0.384048 1.28016 0.768096 1.92024 1.024128 0.768096 0.384048 1.536192 0.896112 2.304288 1.28016 0.64008 0.384048 1.28016 0.64008 1.92024 1.024128 0.768096 0.384048 1.536192 0.896112 2.304288 1.28016 0.64008 0.384048 1.28016 0.64008 1.92024 1.024128 0.768096 0.384048 1.664208 0.896112 2.432304 1.28016 0.64008 0.256032 1.152144 0.64008 1.792224 0.896112 0.896112 0.384048 1.792224 0.896112 2.56032 1.28016 0.512064 0.256032 1.152144 0.512064 1.664208 0.768096l3.072384 1.536192c0.384048 0.256032 0.768096 0.384048 1.28016 0.64008 1.408176 0.64008 2.816352 1.408176 4.352544 2.048256 0.384048 0.128016 0.768096 0.384048 1.152144 0.512064 1.024128 0.512064 2.048256 1.024128 3.2004 1.408176 0.512064 0.256032 1.152144 0.512064 1.664208 0.768096l2.688336 1.152144 1.92024 0.768096c0.896112 0.384048 1.664208 0.768096 2.56032 1.024128l1.92024 0.768096c0.768096 0.384048 1.664208 0.64008 2.432304 1.024128 0.64008 0.256032 1.28016 0.512064 2.048256 0.768096 0.768096 0.384048 1.664208 0.64008 2.432304 1.024128 0.64008 0.256032 1.408176 0.512064 2.048257 0.768096 0.768096 0.384048 1.664208 0.64008 2.432304 1.024128 0.64008 0.256032 1.408176 0.512064 2.048256 0.768096 0.768096 0.256032 1.664208 0.64008 2.432304 0.896112 0.64008 0.256032 1.408176 0.512064 2.048256 0.768096 0.768096 0.256032 1.664208 0.64008 2.56032 0.896112 0.64008 0.256032 1.408176 0.512064 2.048256 0.768096 0.896112 0.256032 1.664208 0.64008 2.56032 0.896112 0.64008 0.256032 1.28016 0.512064 2.048256 0.768096 0.896112 0.256032 1.792224 0.64008 2.688336 0.896112 0.64008 0.256032 1.28016 0.384048 1.92024 0.64008 0.896112 0.256032 1.792224 0.64008 2.688336 0.896112 0.64008 0.256032 1.28016 0.384048 1.792224 0.64008 1.024128 0.384048 2.048256 0.64008 3.072384 1.024128 0.512064 0.128016 1.024128 0.384048 1.536192 0.512064 1.536192 0.512064 3.072384 1.024128 4.608576 1.408176 0.256032 0.128016 0.512064 0.128016 0.768096 0.256032l3.84048 1.152144c0.512064 0.128016 1.152144 0.384048 1.664208 0.512064 1.024128 0.256032 2.048256 0.64008 2.944368 0.896112 0.64008 0.128016 1.28016 0.384048 1.92024 0.512064l2.688336 0.768096c0.64008 0.128016 1.408176 0.384048 2.048256 0.512064l2.688336 0.768096c0.64008 0.128016 1.408176 0.384048 2.048256 0.512064 0.896112 0.256032 1.664208 0.512064 2.56032 0.64008 0.768096 0.128016 1.408176 0.384048 2.048256 0.512064 0.896112 0.256032 1.664208 0.384048 2.560321 0.64008 0.768096 0.128016 1.408176 0.384048 2.176272 0.512064 0.896112 0.256032 1.664208 0.384048 2.56032 0.64008 0.768096 0.128016 1.408176 0.384048 2.176272 0.512064 0.896112 0.256032 1.664208 0.384048 2.56032 0.64008 0.64008 0.128016 1.408176 0.384048 2.048256 0.512064 0.896112 0.256032 1.792224 0.384048 2.56032 0.64008 0.64008 0.128016 1.408176 0.384048 2.048256 0.512064 0.896112 0.256032 1.792224 0.384048 2.688336 0.64008 0.64008 0.128016 1.28016 0.256032 2.048256 0.512064 0.896112 0.256032 1.792224 0.384048 2.816352 0.64008l1.92024 0.384048c1.024128 0.256032 1.92024 0.384048 2.944368 0.64008 0.512064 0.128016 1.152144 0.256032 1.664208 0.384048 1.28016 0.256032 2.688336 0.512064 3.968496 0.768096 0.256032 0 0.384048 0.128016 0.64008 0.128016 1.536192 0.256032 3.072384 0.64008 4.608576 0.896112 0.512064 0.128016 1.024128 0.256032 1.536192 0.256032 1.024128 0.256032 2.048256 0.384048 3.072384 0.64008 0.64008 0.128016 1.28016 0.256032 1.792224 0.384048 0.896112 0.128016 1.92024 0.384048 2.816352 0.512064l1.92024 0.384048c0.896112 0.128016 1.792224 0.256032 2.688336 0.512064 0.64008 0.128016 1.408176 0.256032 2.048256 0.384048 0.896112 0.128016 1.792224 0.256032 2.56032 0.384049 0.64008 0.128016 1.408176 0.256032 2.048256 0.384048 0.896112 0.128016 1.664208 0.256032 2.56032 0.384048 0.64008 0.128016 1.408176 0.256032 2.048257 0.384048 0.896112 0.128016 1.664208 0.256032 2.56032 0.384048 0.64008 0.128016 1.408176 0.256032 2.048256 0.384048 0.896112 0.128016 1.664208 0.256032 2.56032 0.384048 0.64008 0.128016 1.408176 0.256032 2.048256 0.256032 0.896112 0.128016 1.664208 0.256032 2.56032 0.384048 0.64008 0.128016 1.28016 0.128016 2.048256 0.256032 0.896112 0.128016 1.664208 0.256032 2.56032 0.384048 0.64008 0.128016 1.28016 0.128016 1.92024 0.256032l2.688336 0.384048c0.64008 0.128016 1.28016 0.128016 1.792224 0.256032 1.024128 0.128016 1.92024 0.256032 2.944368 0.384048 0.512064 0.128016 1.024128 0.128016 1.536192 0.256032l3.456432 0.384048c0.256032 0 0.64008 0.128016 0.896112 0.128016 1.536192 0.128016 2.944368 0.384048 4.48056 0.512064 0.384048 0 0.768096 0.128016 1.28016 0.128016 1.024128 0.128016 2.176272 0.256032 3.2004 0.384048 0.64008 0 1.152144 0.128016 1.792224 0.128016 0.896112 0.128016 1.792224 0.128016 2.688336 0.256032 0.64008 0.128016 1.28016 0.128016 1.792224 0.128016 0.896112 0.128016 1.664208 0.128016 2.56032 0.256032 0.64008 0 1.28016 0.128016 1.792224 0.128016 0.768096 0.128016 1.664208 0.128016 2.432304 0.256032 0.64008 0 1.28016 0.128016 1.92024 0.128016 0.768096 0.128016 1.664208 0.128016 2.432304 0.256032 0.64008 0 1.28016 0.128016 1.92024 0.128016 0.768096 0.128016 1.664208 0.128016 2.432304 0.256032 0.64008 0 1.28016 0.128016 1.792225 0.128016 0.768096 0.128016 1.536192 0.128016 2.432304 0.256032 0.64008 0 1.28016 0.128016 1.792224 0.128016 0.768096 0 1.536192 0.128016 2.304288 0.128016 0.64008 0 1.28016 0.128016 1.792224 0.128016 0.768096 0 1.536192 0.128016 2.304288 0.128016 0.64008 0 1.152144 0.128016 1.792224 0.128016 0.768096 0 1.664208 0.128016 2.432304 0.128016 0.512064 0 1.024128 0.128016 1.536192 0.128016 0.896112 0 1.792224 0.128016 2.688336 0.128016 0.512064 0 0.896112 0 1.408176 0.128016 1.024128 0 1.92024 0.128016 2.944368 0.128016 0.384048 0 0.768096 0 1.152144 0.128016 1.28016 0.128016 2.688336 0.128016 3.968496 0.256032h0.384048c1.152144 0.128016 2.304288 0.128016 3.456432 0.128016 0.512064 0 0.896112 0 1.408176 0.128016 0.896112 0 1.664208 0.128016 2.56032 0.128016 0.512064 0 1.024128 0 1.536192 0.128016 0.768096 0 1.536192 0.128016 2.304288 0.128016 0.512064 0 1.024128 0 1.536192 0.128016 0.768096 0 1.536192 0 2.176272 0.128016h1.536192c0.768096 0 1.408176 0 2.176272 0.128016h1.536192c0.768096 0 1.408176 0 2.176272 0.128016H464.570071c2.304288 0 4.608576-0.128016 6.656832-0.256032h0.128016c0.64008 0 1.28016 0 1.792224-0.128016H480.95612c0.512064 0 0.896112 0 1.408176-0.128016h0.128016c0.512064 0 0.896112 0 1.408176-0.128016h0.128016c1.92024-0.128016 3.584448-0.256032 4.992624-0.256032 34.436305-109.83773 137.105138-189.591699 258.336292-189.591699 27.395424 0 53.766721 4.096512 78.729841 11.649456V291.748469c0 30.851856-104.845106 70.792849-119.054882 76.297537-71.176897 26.88336-163.348419 40.837105-278.178772 40.837104-85.258657 0-147.986498-5.248656-212.122516-20.994624-56.967121-13.953744-184.983123-56.583073-184.983123-96.140017v261.024628c1.024128 1.152144 2.048256 2.304288 2.944369 3.584448 0.512064 0.384048 0.896112 0.768096 1.28016 1.152144z" fill="#6EB2F6" /><path d="M480.188024 720.090011c-318.375797 34.948369-448.312039-117.774722-448.31204-117.774722V848.746093h0.384049c3.2004 86.154769 179.734467 155.667458 397.105638 155.667459 59.783473 0 116.494562-5.248656 167.316914-14.721841-72.329041-48.646081-119.822978-131.216402-119.822978-224.796099 0-15.233904 1.28016-30.211776 3.712465-44.805601h-0.384048z" fill="#6EB2F6" /><path d="M754.526316 529.346168C645.20065 529.346168 553.029129 603.339417 525.633704 704.088011c-0.768096 2.944368-1.536192 5.76072-2.176272 8.705088-3.968496 17.28216-6.144768 35.332417-6.144768 53.894737 0 131.088386 106.253282 237.341668 237.341668 237.341668s237.341668-106.253282 237.341667-237.341668c-0.128016-131.088386-106.381298-237.341668-237.469683-237.341668z m122.511314 175.637955l-115.214402 156.56357-11.137392 15.233905c-14.593824 19.714464-31.36392 8.96112-34.052257 7.04088l-0.384048-0.256032-97.420177-71.688961c-6.272784-4.608576-5.76072-16.130016 1.152144-25.603201l1.28016-1.664208c7.04088-9.473184 17.794224-13.44168 24.067008-8.705088l77.705713 57.223153c0.64008 0.512064 4.096512 0.128016 4.608576-0.512064L841.065133 678.484811c6.912864-9.473184 20.354544-11.52144 29.827729-4.48056l1.664208 1.28016c9.473184 6.912864 11.52144 20.226528 4.48056 29.699712z" fill="#3091F4" /><path d="M872.55707 675.284411l-1.664208-1.28016c-9.473184-7.04088-22.786848-4.992624-29.827729 4.48056l-113.422178 154.00325c-0.512064 0.64008-1.408176 1.152144-2.304288 1.152144-0.896112 0.128016-1.664208-0.128016-2.304288-0.64008L645.328666 775.776972c-6.272784-4.608576-17.026128-0.768096-24.067008 8.705088l-1.28016 1.664208c-6.912864 9.473184-7.552944 20.866608-1.152144 25.603201l97.420177 71.688961 0.384048 0.256032c2.688336 1.92024 19.458432 12.545568 34.052257-7.04088l11.137392-15.233905 115.214402-156.56357c7.04088-9.345168 4.992624-22.658832-4.48056-29.571696z" fill="#FFFFFF" /></svg>