<?xml version="1.0" standalone="no"?><!DOCTYPE svg PUBLIC "-//W3C//DTD SVG 1.1//EN" "http://www.w3.org/Graphics/SVG/1.1/DTD/svg11.dtd"><svg class="icon" height="512" viewBox="0 0 1260 1024" version="1.1" xmlns="http://www.w3.org/2000/svg"><path d="M375.335385 737.28h307.593846v92.16h-374.153846v-25.6a66.56 66.56 0 0 1 66.56-66.56M923.569231 472.615385a669.538462 669.538462 0 0 1 123.273846 13.784615 159.901538 159.901538 0 0 1 0 16.541538 150.449231 150.449231 0 0 1-39.384615 101.612308 124.455385 124.455385 0 0 1-85.858462 41.747692v-39.384615a57.895385 57.895385 0 0 0 21.267692-51.2 57.895385 57.895385 0 0 0-21.267692-51.2zM892.455385 400.541538A102.793846 102.793846 0 0 1 905.846154 351.704615a50.806154 50.806154 0 0 1 43.716923-25.206153 129.181538 129.181538 0 0 1 45.686154 7.483076c15.753846 4.726154 32.689231 11.815385 50.018461 18.904616a627.003077 627.003077 0 0 0 57.501539 22.843077 107.126154 107.126154 0 0 0 65.772307 2.756923 76.406154 76.406154 0 0 0 43.323077-56.713846l3.544616-6.695385 8.664615 2.363077 16.935385 5.12 8.664615 2.363077-2.756923 8.664615a110.276923 110.276923 0 0 1-63.409231 80.738462 143.36 143.36 0 0 1-89.796923-2.756923c-11.027692-3.150769-21.661538-7.089231-32.689231-11.027693l-31.901538-12.603076a229.612308 229.612308 0 0 0-78.769231-23.63077 17.723077 17.723077 0 0 0-16.147692 11.027693 68.135385 68.135385 0 0 0-5.513846 26.781538h9.452307l11.421539 58.683077h-78.769231l11.421539-58.683077z" fill="#3787AC" /><path d="M1090.166154 493.489231l-16.147692-3.938462v14.572308a183.926154 183.926154 0 0 1-46.473847 126.030769 152.024615 152.024615 0 0 1-228.824615 0 183.926154 183.926154 0 0 1-46.867692-124.061538v-14.966154l-16.147693 4.332308v344.615384a176.836923 176.836923 0 1 0 354.461539 0z" fill="#3787AC" /><path d="M781.784615 486.006154a588.406154 588.406154 0 0 1 118.153847-13.390769v31.113846a57.107692 57.107692 0 0 0-22.055385 51.2 57.107692 57.107692 0 0 0 22.055385 51.2v39.384615a125.243077 125.243077 0 0 1-81.526154-39.384615 150.449231 150.449231 0 0 1-39.384616-101.612308 169.747692 169.747692 0 0 1 0-17.329231M506.486154 363.913846v191.409231l39.384615-37.021539 36.627693 81.132308a22.843077 22.843077 0 0 0 41.747692-18.904615l-39.384616-83.495385 50.412308-9.846154z" fill="#3787AC" /><path d="M138.633846 9.058462A123.667692 123.667692 0 0 0 46.867692 51.2a144.147692 144.147692 0 0 0-36.627692 96.098462V575.015385a144.147692 144.147692 0 0 0 36.627692 94.523077 123.273846 123.273846 0 0 0 91.766154 42.141538h544.295385v-66.56H138.633846a55.532308 55.532308 0 0 1-39.384615-19.298462A75.618462 75.618462 0 0 1 78.769231 575.015385V147.298462a75.618462 75.618462 0 0 1 18.904615-50.806154 55.532308 55.532308 0 0 1 39.384616-19.298462h827.076923a55.532308 55.532308 0 0 1 39.384615 19.298462 75.618462 75.618462 0 0 1 18.904615 50.806154v141.390769c12.603077 4.726154 24.812308 9.452308 37.021539 14.572307l35.446154 11.815385V147.298462a143.753846 143.753846 0 0 0-36.233846-96.492308A123.667692 123.667692 0 0 0 966.892308 9.058462z" fill="#3787AC" /></svg>